<?xml version="1.0" encoding="UTF-8"?>
<svg id="Layer_1" xmlns="http://www.w3.org/2000/svg" version="1.1" viewBox="0 0 295.91 148.57">
  <!-- Generator: Adobe Illustrator 30.5.1, SVG Export Plug-In . SVG Version: 2.1.4 Build 3)  -->
  <defs>
    <style>
      .st0 {
        fill: #0765eb;
      }

      .st1 {
        isolation: isolate;
      }
    </style>
  </defs>
  <g class="st1">
    <g class="st1">
      <path class="st0" d="M35.54,135.31h-9.08l-.33-4.51c-2.12,3.32-5.84,5.37-10.41,5.37-9.08,0-15.72-7.43-15.72-17.44s6.7-17.44,15.72-17.44c4.58,0,8.29,2.06,10.41,5.37l.33-4.51h9.08v33.16ZM9.35,118.73c0,5.24,3.32,8.69,8.42,8.69s8.49-3.32,8.49-8.69-3.51-8.69-8.49-8.69-8.42,3.45-8.42,8.69Z"/>
      <path class="st0" d="M49.47,102.15l7.49,21.55,6.56-21.55h10.74l-12.33,31.96c-3.98,10.34-7.23,14.46-14.72,14.46-2.19,0-4.24-.2-6.76-1.06l-.6-8.49.6-.33c2.32,1.13,3.78,1.53,6.3,1.53,1.99,0,4.18-1.06,5.17-3.58l.8-1.99-13.99-32.49h10.74Z"/>
      <path class="st0" d="M76.8,111.03v-8.89h5.97v-6.83h9.42v6.83h8.09v8.89h-8.09v12.07c0,2.65,1.13,3.85,3.58,3.85,1.19,0,2.59-.27,4.38-.86l.66.53-.53,8.55c-2.39.4-4.44.66-6.3.66-7.23,0-11.21-2.59-11.21-10.15v-14.66h-5.97Z"/>
      <path class="st0" d="M106.44,86.9h9.42v19.56c2.19-3.25,5.37-5.17,9.95-5.17,7.49,0,12.2,4.71,12.2,13.53v20.49h-9.42v-18.77c0-4.24-1.79-6.43-5.97-6.43-4.84,0-6.76,2.92-6.76,7.56v17.64h-9.42v-48.41Z"/>
      <path class="st0" d="M154.19,109.64c1.59-5.24,6.17-8.09,10.68-8.09l.53.66-.53,9.68c-.4,0-.8-.07-1.19-.07-6.23,0-9.48,4.04-9.48,9.81v13.66h-9.42v-33.16h9.09l.33,7.49Z"/>
      <path class="st0" d="M203.47,118.73c0,9.95-7.56,17.44-17.64,17.44s-17.51-7.49-17.51-17.44,7.49-17.44,17.51-17.44,17.64,7.49,17.64,17.44ZM177.8,118.73c0,4.97,3.25,8.42,8.02,8.42s8.16-3.52,8.16-8.42-3.25-8.42-8.16-8.42-8.02,3.45-8.02,8.42Z"/>
      <path class="st0" d="M218.06,102.15l.33,4.31c1.92-3.45,5.37-5.17,9.88-5.17,7.23,0,12.2,5.04,12.2,14.06v19.96h-9.35v-18.77c0-4.11-2.32-6.43-5.97-6.43-4.31,0-6.76,2.92-6.76,7.56v17.64h-9.42v-33.16h9.08Z"/>
      <path class="st0" d="M257.52,92.53c0,3.38-2.45,5.11-5.57,5.11-2.92,0-5.44-1.72-5.44-5.11s2.52-5.17,5.44-5.17c3.12,0,5.57,1.79,5.57,5.17ZM247.3,135.31v-33.16h9.42v33.16h-9.42Z"/>
      <path class="st0" d="M260.7,135.31l12-16.91-11.47-16.25h10.88l6.17,9.88,6.23-9.88h10.88l-11.47,16.25,12,16.91h-10.94l-6.7-10.54-6.7,10.54h-10.88Z"/>
    </g>
  </g>
  <g>
    <path class="st0" d="M135.83,54.02l23.89-41.04c1.63-2.79,5.88-2.34,7.68-.85,2.6,2.16,2.85,4.9,1.18,7.8l-22.29,38.72c-4.98,8.65-15.45,11.63-23.93,6.54-8.55-5.13-10.26-15.79-5.21-24.42l17.59-30.04c1.76-3.01,5.19-4.29,8.26-4.3,3.29-.02,6.57,1.58,8.35,4.55l2.88,4.8-6.53,11.18-4.78-8.04-16.84,29.25c-1.47,2.56-.18,5.87,1.93,7.27,2.31,1.54,6.16,1.41,7.81-1.43h.01Z"/>
    <path class="st0" d="M169.56,64.87l-11.58-20.01,6.51-11.2,14.49,24.98c1.62,2.79,1.39,6.07-1.24,7.96s-6.4,1.36-8.18-1.72h0Z"/>
    <path class="st0" d="M168.78,2.02l3.57-1.78c1.55-.77,3.35.44,3.21,2.17l-.32,3.98-.27,4.41c-.09,1.54-1.83,2.38-3.1,1.51l-2.04-1.85c-.96-.87-2.04-1.58-3.21-2.13l-2.09-.97c-1.29-.85-1.15-2.78.24-3.44l3.99-1.9h.02Z"/>
  </g>
</svg>